<svg width="978" height="658" viewBox="0 0 978 658" fill="none" xmlns="http://www.w3.org/2000/svg">
<g clip-path="url(#clip0_1_2)">
<path d="M400.778 138.94C402.693 142.913 401.564 147.504 399.035 150.934C396.157 154.836 391.581 156.76 386.886 157.396C381.847 158.007 376.736 157.586 371.865 156.159C367.166 154.803 362.289 151.896 361.32 146.703C360.674 143.241 362.151 139.548 365.745 138.588C367.187 138.224 368.698 138.237 370.133 138.626C371.568 139.015 372.879 139.768 373.938 140.811C376.923 143.917 376.696 148.903 374.799 152.511C372.568 156.755 368.104 159.096 363.515 159.869C358.059 160.788 352.576 159.504 347.443 157.678C341.864 155.694 336.452 153.223 330.985 150.952C320.325 146.526 309.435 142.367 297.971 140.604C280.459 137.91 259.676 142.104 248.956 157.458C243.169 165.746 241.529 176.14 242.775 186.028C244.088 196.456 248.664 206.038 254.723 214.524C257.931 218.938 261.434 223.13 265.208 227.071C266.436 228.266 267.282 229.799 267.637 231.475C267.992 233.151 267.841 234.895 267.202 236.486C263.881 244.646 250.603 242.045 249.613 233.634C249.164 229.812 251.296 225.875 253.961 223.283C256.985 220.455 260.794 218.609 264.888 217.989C273.504 216.55 282.612 219.745 289.198 225.294C296.639 231.563 300.827 241.09 303.034 250.364C305.546 260.922 305.674 271.782 305.913 282.575C306.157 293.62 306.577 304.796 309.745 315.456C312.322 324.037 316.3 332.132 321.519 339.414C331.94 354.086 346.756 365.065 363.826 370.766C367.955 372.106 372.189 373.098 376.483 373.731C378.164 373.981 378.365 371.348 376.691 371.1C357.971 368.324 340.756 358.189 328.432 343.942C322.256 336.834 317.375 328.698 314.011 319.903C309.992 309.31 308.973 298.058 308.645 286.816C308.31 275.334 308.492 263.748 306.194 252.437C304.161 242.438 300.175 232.313 292.793 225.027C289.512 221.76 285.603 219.191 281.302 217.477C277.001 215.763 272.396 214.939 267.768 215.056C259.204 215.452 250.047 220.169 247.502 228.906C246.845 230.892 246.749 233.022 247.225 235.059C247.701 237.096 248.729 238.963 250.198 240.453C251.982 242.145 254.201 243.31 256.607 243.819C259.014 244.328 261.514 244.16 263.831 243.334C266.348 242.245 268.37 240.259 269.504 237.761C270.637 235.264 270.801 232.434 269.963 229.823C269.258 227.905 268.126 226.173 266.653 224.759C258.927 216.509 251.838 207.276 247.991 196.533C244.402 186.513 243.666 174.986 247.805 165.016C255.639 146.141 278.375 140.469 296.896 143.107C309.016 144.834 320.493 149.422 331.72 154.116C337.453 156.513 343.149 159.177 349.095 161.012C354.419 162.655 360.132 163.479 365.616 162.132C370.404 160.956 374.803 158.173 377.122 153.72C379.229 149.676 379.592 144.544 377.087 140.581C373.465 134.853 363.465 133.564 359.821 139.998C357.403 144.268 358.591 149.735 361.766 153.276C365.327 157.246 370.659 158.867 375.761 159.686C385.403 161.232 397.275 160.017 402.433 150.493C403.555 148.586 404.206 146.439 404.331 144.23C404.457 142.021 404.054 139.813 403.155 137.791C402.996 137.488 402.725 137.259 402.399 137.152C402.074 137.044 401.72 137.068 401.412 137.217C401.103 137.366 400.865 137.629 400.746 137.95C400.628 138.272 400.64 138.627 400.778 138.94L400.778 138.94Z" fill="#3F3D56"/>
<path d="M800.275 91.9398C798.36 95.9133 799.489 100.504 802.018 103.934C804.896 107.836 809.472 109.76 814.167 110.396C819.206 111.007 824.317 110.586 829.188 109.159C833.887 107.803 838.764 104.896 839.733 99.7027C840.379 96.2415 838.902 92.5478 835.308 91.5883C833.867 91.2238 832.355 91.2368 830.92 91.6261C829.485 92.0155 828.174 92.768 827.115 93.8112C824.13 96.9175 824.357 101.903 826.254 105.511C828.485 109.754 832.949 112.096 837.538 112.869C842.995 113.788 848.477 112.504 853.61 110.678C859.189 108.694 864.601 106.223 870.068 103.953C880.728 99.5256 891.618 95.3669 903.082 93.6037C920.594 90.9104 941.377 95.1044 952.097 110.458C957.885 118.746 959.524 129.14 958.278 139.028C956.965 149.456 952.389 159.038 946.33 167.524C943.122 171.938 939.619 176.13 935.845 180.071C934.617 181.266 933.771 182.799 933.416 184.475C933.061 186.151 933.212 187.895 933.851 189.486C937.172 197.646 950.45 195.045 951.44 186.634C951.889 182.812 949.757 178.875 947.092 176.283C944.069 173.455 940.259 171.609 936.165 170.989C927.549 169.55 918.441 172.745 911.855 178.294C904.415 184.563 900.226 194.09 898.019 203.364C895.507 213.922 895.379 224.782 895.141 235.575C894.896 246.62 894.476 257.796 891.308 268.456C888.731 277.037 884.753 285.132 879.535 292.414C869.113 307.086 854.297 318.065 837.227 323.766C833.098 325.106 828.864 326.098 824.57 326.731C822.889 326.981 822.688 324.348 824.362 324.1C843.082 321.324 860.297 311.189 872.621 296.942C878.797 289.834 883.678 281.698 887.042 272.903C891.061 262.31 892.08 251.058 892.408 239.816C892.743 228.334 892.561 216.748 894.86 205.437C896.892 195.438 900.878 185.313 908.26 178.027C911.541 174.76 915.45 172.191 919.751 170.477C924.053 168.763 928.657 167.939 933.286 168.056C941.849 168.452 951.006 173.169 953.551 181.906C954.208 183.892 954.304 186.022 953.828 188.059C953.353 190.096 952.324 191.963 950.855 193.453C949.071 195.145 946.852 196.311 944.446 196.819C942.039 197.328 939.539 197.16 937.222 196.334C934.705 195.245 932.683 193.259 931.55 190.761C930.416 188.264 930.252 185.434 931.09 182.823C931.795 180.905 932.927 179.173 934.401 177.759C942.126 169.509 949.216 160.276 953.063 149.533C956.651 139.513 957.387 127.987 953.249 118.016C945.414 99.1407 922.678 93.4691 904.157 96.1072C892.037 97.8337 880.56 102.423 869.333 107.116C863.6 109.513 857.904 112.177 851.958 114.012C846.634 115.655 840.922 116.48 835.437 115.132C830.65 113.956 826.25 111.173 823.931 106.721C821.825 102.676 821.461 97.5439 823.966 93.5816C827.588 87.8529 837.588 86.5642 841.232 92.9986C843.65 97.268 842.463 102.735 839.287 106.276C835.726 110.246 830.395 111.867 825.292 112.686C815.651 114.232 803.778 113.017 798.62 103.494C797.498 101.586 796.847 99.4389 796.722 97.2298C796.596 95.0206 796.999 92.8134 797.898 90.7913C798.057 90.4882 798.328 90.259 798.654 90.1518C798.979 90.0447 799.333 90.0681 799.642 90.2171C799.95 90.3662 800.188 90.6291 800.307 90.9505C800.425 91.272 800.413 91.6265 800.275 91.9398Z" fill="#3F3D56"/>
<path d="M89.8832 168.727C91.209 168.913 92.478 169.387 93.6007 170.116C94.7235 170.845 95.6727 171.812 96.3816 172.947C97.0904 174.083 97.5417 175.36 97.7035 176.689C97.8653 178.018 97.7337 179.367 97.3181 180.639L134.957 255.387L118.924 260.166L85.1163 186.381C83.0247 185.541 81.3138 183.963 80.3079 181.946C79.302 179.929 79.071 177.613 79.6586 175.437C80.2462 173.261 81.6116 171.376 83.4961 170.139C85.3805 168.902 87.6532 168.4 89.8833 168.727H89.8832Z" fill="#FFB6B6"/>
<path d="M151.097 295.736C151.097 295.736 155.762 294.457 151.148 285.305C147.454 277.978 129.122 230.872 121.484 222.419C122.393 221.107 122.84 219.529 122.754 217.934C122.668 216.34 122.054 214.819 121.008 213.612L101.776 227.426C101.166 232.756 103.588 236.893 105.694 236.813L111.535 250.434L126.448 297.233L147.741 296.72L151.097 295.736Z" fill="#6C63FF"/>
<path d="M145.084 321.167L146.958 338.549L145.855 361.341L196.34 355.343L201.084 321.167L195.04 321.227L145.084 321.167Z" fill="#FFB6B6"/>
<path d="M188.026 265.025L169.026 250.025L159.053 249.445L144.254 258.926L131.847 265.244L132.059 298.232L146.324 357.303L197.324 355.303L204.037 313.18C204.037 313.18 219.632 292.233 202.837 280.237L188.026 265.025Z" fill="#6C63FF"/>
<path d="M118.898 636.741H129.936L135.188 594.167H118.898V636.741Z" fill="#FFB6B6"/>
<path d="M115.296 629.181L132.93 628.129V635.684L149.695 647.262C150.523 647.834 151.147 648.656 151.475 649.607C151.803 650.558 151.818 651.59 151.519 652.55C151.219 653.511 150.621 654.351 149.81 654.947C149 655.544 148.02 655.865 147.013 655.865H126.019L122.401 648.392L120.988 655.865H113.072L115.296 629.181Z" fill="#2F2E41"/>
<path d="M180.898 636.741H191.936L197.188 594.167H180.898V636.741Z" fill="#FFB6B6"/>
<path d="M177.296 629.181L194.93 628.129V635.684L211.695 647.262C212.523 647.834 213.147 648.656 213.475 649.607C213.803 650.558 213.818 651.59 213.519 652.55C213.219 653.511 212.621 654.351 211.81 654.947C211 655.544 210.02 655.865 209.013 655.865H188.019L184.401 648.392L182.988 655.865H175.072L177.296 629.181Z" fill="#2F2E41"/>
<path d="M114.136 604.027H114.256L116.378 534.804C115.005 532.154 114.308 529.206 114.349 526.222C114.39 523.237 115.169 520.309 116.616 517.699L116.92 517.149L116.132 513.496C115.12 508.803 115.584 503.912 117.462 499.493L119.442 434.921C112.367 389.07 146.084 359.167 146.084 359.167H196.592L207.436 396.423C214.604 466.264 213.303 534.321 201.928 600.257L202.238 600.414C203.355 600.8 203.834 602.346 203.308 603.869C202.782 605.392 201.451 606.314 200.334 605.929L173.66 605.001C172.544 604.616 172.065 603.069 172.59 601.546C173.116 600.023 174.447 599.101 175.564 599.486L177.378 600.404L173.51 533.606L173.939 521.405L173.055 507.563L168.966 445.302L153.49 521.865L137.682 604.798C138.118 605.193 138.424 605.711 138.559 606.283C138.695 606.855 138.654 607.455 138.441 608.004C138.229 608.552 137.855 609.023 137.369 609.355C136.884 609.687 136.309 609.863 135.721 609.861H114.136C113.362 609.861 112.62 609.554 112.073 609.007C111.526 608.46 111.219 607.718 111.219 606.944C111.219 606.171 111.526 605.429 112.073 604.882C112.62 604.335 113.362 604.027 114.136 604.027V604.027Z" fill="#2F2E41"/>
<path d="M188.897 408.428C189.937 407.585 190.78 406.524 191.366 405.32C191.952 404.117 192.267 402.799 192.288 401.461C192.31 400.122 192.038 398.795 191.491 397.573C190.945 396.351 190.137 395.264 189.124 394.388L184.324 311.303L166.623 315.11L175.709 395.761C174.35 397.559 173.698 399.794 173.877 402.04C174.055 404.287 175.051 406.391 176.677 407.952C178.303 409.513 180.444 410.424 182.697 410.512C184.949 410.599 187.155 409.858 188.897 408.428H188.897Z" fill="#FFB6B6"/>
<path d="M175.844 268.043C175.844 268.043 180.501 266.732 181.268 276.953C181.881 285.136 190.468 334.949 188.283 346.13C189.739 346.785 190.935 347.907 191.684 349.317C192.432 350.728 192.69 352.347 192.417 353.92L168.816 352.003C165.544 347.752 165.486 342.958 167.331 341.94L165.311 327.258L153.954 279.471L172.461 268.93L175.844 268.043Z" fill="#6C63FF"/>
<path d="M160.522 247.741C173.708 247.741 184.398 237.051 184.398 223.865C184.398 210.679 173.708 199.989 160.522 199.989C147.336 199.989 136.646 210.679 136.646 223.865C136.646 237.051 147.336 247.741 160.522 247.741Z" fill="#FFB8B8"/>
<path d="M109.072 274.042C104.019 272.252 98.9666 270.458 93.9141 268.661C94.785 267.2 95.894 265.894 97.1954 264.799C102.006 260.782 108.646 260.056 114.753 258.701C120.87 257.346 127.51 254.568 129.746 248.722C132.069 242.644 128.701 236.081 126.746 229.886C124.006 221.243 124.065 211.593 127.733 203.308C131.401 195.022 138.854 188.305 147.701 186.331C156.548 184.366 166.546 187.569 171.986 194.809C175.49 193.758 179.259 194.026 182.579 195.564C185.9 197.101 188.542 199.8 190.008 203.153C191.276 206.328 191.315 210.151 189.427 213.006C187.54 215.861 183.504 217.323 180.465 215.736L182.226 211.264C176.777 213.113 173.234 222.966 173.97 228.677C174.696 234.378 178.025 239.372 181.404 244.028C184.782 248.683 188.382 253.387 189.834 258.953C191.925 266.957 189.098 275.707 183.872 282.124C178.645 288.542 171.279 292.897 163.652 296.101C157.943 298.501 152.009 300.33 145.939 301.56C147.023 299.45 148.098 297.34 149.182 295.23L136.318 303.012C133.831 303.254 131.324 303.399 128.817 303.448C121.519 303.573 114.076 302.809 107.397 299.895C100.709 296.972 94.8337 291.678 92.4139 284.796C91.6381 282.57 91.2709 280.222 91.33 277.866C97.2437 276.588 103.158 275.314 109.072 274.042Z" fill="#2F2E41"/>
<path d="M125.026 65.0251C125.026 31.888 100.689 0 70.8655 0C41.0422 0 17.0265 31.888 17.0265 65.0251C17.0265 94.1219 35.6689 118.375 60.4051 123.858C58.9912 127.94 58.1896 132.208 58.0265 136.525C58.0265 145.638 63.1336 137 70.8655 137C78.5975 137 86.0265 145.638 86.0265 136.525C85.8505 132.047 84.9959 127.622 83.4918 123.4C107.303 117.146 125.026 93.3928 125.026 65.0251Z" fill="#6C63FF"/>
<path d="M59.6284 125.24L83.0582 125.766C84.9894 125.81 84.9889 122.81 83.0582 122.766L59.6284 122.24C57.6972 122.197 57.6977 125.197 59.6284 125.24Z" fill="#3F3D56"/>
<path d="M299.026 656.025C298.259 658.298 0.82789 658.084 0 655.817C0.76639 653.539 298.198 653.752 299.026 656.025Z" fill="#CCCCCC"/>
<path d="M70.131 135.636C67.6569 146.505 66.481 158.828 73.08 168.556C75.885 172.729 80.0014 175.847 84.7779 177.417C89.6127 178.851 94.7105 179.164 99.6844 178.333C110.94 176.774 120.943 170.911 132.012 168.635C136.897 167.63 142.082 167.298 146.784 169.231C150.308 170.68 154.019 173.592 154.036 177.746C154.053 182.012 150.348 184.843 146.663 186.155C141.747 187.905 136.637 187.227 131.537 187.007C126.045 186.769 120.444 187.266 115.882 190.63C111.957 193.693 108.948 197.773 107.18 202.427C104.887 207.993 103.956 213.977 102.489 219.785C101.179 225.006 99.3244 230.075 96.9571 234.91C92.3122 244.387 85.8007 252.827 77.8133 259.725C73.8741 263.115 69.0877 266.569 63.7077 266.88C59.5581 267.119 54.514 265.375 52.9145 261.173C52.3204 259.358 52.3785 257.393 53.079 255.616C53.7795 253.84 55.0783 252.364 56.7511 251.443C60.3073 249.649 64.1802 252.209 65.3287 255.722C65.6299 256.532 65.7352 257.402 65.6361 258.26C65.5369 259.119 65.236 259.942 64.758 260.661C63.6797 262.269 66.2773 263.773 67.3484 262.176C69.8353 258.467 68.5354 253.48 65.4898 250.51C64.004 248.995 62.0177 248.073 59.9017 247.915C57.7857 247.757 55.6847 248.375 53.9908 249.653C52.2308 250.993 50.9003 252.817 50.1626 254.903C49.4248 256.988 49.3119 259.244 49.8377 261.392C51.117 266.009 55.6533 268.945 60.1833 269.673C65.7774 270.571 71.1611 268.373 75.6768 265.196C80.2075 261.926 84.327 258.121 87.9459 253.863C95.3034 245.402 100.834 235.513 104.192 224.814C107.494 214.233 107.735 200.255 117.546 193.109C122.595 189.432 128.782 189.84 134.701 190.177C139.927 190.475 145.024 190.421 149.818 188.055C153.777 186.102 156.97 182.497 157.036 177.903C157.103 173.266 153.811 169.537 149.931 167.424C139.684 161.843 127.377 166.344 117.309 170.073C107.185 173.823 95.6257 178.224 84.8661 174.278C79.9002 172.348 75.9022 168.528 73.7485 163.655C71.1431 158.13 70.7724 151.86 71.3743 145.864C71.7291 142.689 72.28 139.54 73.0239 136.433C73.4517 134.553 70.56 133.751 70.1311 135.636L70.131 135.636Z" fill="#3F3D56"/>
<path d="M431.507 416.649C417.638 415.795 403.76 415.106 389.878 414.488C380.524 414.072 371.161 413.731 361.818 413.099C358.539 412.877 355.259 412.614 351.998 412.2C351.143 412.074 350.285 411.934 349.434 411.76C349.559 411.605 349.682 411.449 349.809 411.295C350.48 410.483 351.17 409.688 351.869 408.901C355.57 404.737 359.488 400.767 363.351 396.754C368.796 391.098 374.2 385.401 379.472 379.582C386.327 372.016 392.962 364.259 399.378 356.31C401.193 354.057 402.99 351.788 404.769 349.505C406.013 347.907 407.251 346.305 408.482 344.697C408.947 344.091 409.41 343.484 409.872 342.875C410.087 342.592 410.302 342.309 410.516 342.025C410.727 341.746 411.648 340.539 410.979 341.401C411.374 340.89 411.769 340.379 412.164 339.867C412.431 339.52 412.697 339.171 412.961 338.822C413.568 338.018 414.164 337.206 414.751 336.386C415.808 334.908 416.83 333.404 417.815 331.876C419.682 328.985 421.4 326.001 422.961 322.934C428.783 311.463 432.595 298.782 432.516 285.832C432.565 274.962 429.563 264.296 423.852 255.047C418.318 246.289 410.309 239.372 400.84 235.172C395.33 232.792 389.504 231.221 383.544 230.51C377.743 229.874 371.883 230.009 366.117 230.91C352.881 232.744 340.188 238.398 329.086 245.699C325.547 248.026 322.165 250.569 318.84 253.191C317.435 254.299 316.643 256.796 316.643 258.494C316.658 260.48 317.446 262.383 318.84 263.797C320.249 265.2 322.155 265.989 324.143 265.994C326.108 265.88 327.977 265.106 329.447 263.797C329.601 263.676 329.756 263.554 329.911 263.432C330.379 263.076 330.85 262.723 331.323 262.374C332.321 261.637 333.33 260.915 334.35 260.208C336.371 258.808 338.435 257.475 340.543 256.208C344.176 254.028 347.945 252.084 351.828 250.388C357.442 248.073 363.311 246.432 369.311 245.5C373.757 244.975 378.248 244.949 382.7 245.42C386.627 246.007 390.472 247.049 394.157 248.525C395.842 249.288 397.479 250.15 399.061 251.107C400.034 251.698 400.983 252.325 401.909 252.988C402.039 253.081 402.327 253.297 402.575 253.482C402.809 253.672 403.042 253.866 403.273 254.061C404.961 255.491 406.54 257.045 407.998 258.708C408.341 259.1 408.678 259.498 409.007 259.901C409.057 259.962 409.105 260.024 409.154 260.085C409.79 260.945 410.395 261.826 410.97 262.728C412.141 264.582 413.18 266.515 414.08 268.515C415.545 272.193 416.58 276.028 417.165 279.943C417.635 284.381 417.61 288.858 417.089 293.291C416.169 299.224 414.547 305.027 412.256 310.577C409.588 316.614 406.332 322.374 402.535 327.773C402.005 328.533 401.465 329.286 400.916 330.033C400.66 330.382 400.401 330.73 400.14 331.077C400.039 331.211 399.702 331.653 399.518 331.895C399.112 332.413 398.714 332.93 398.318 333.454C398.102 333.74 397.887 334.026 397.671 334.312C397.173 334.972 396.672 335.631 396.17 336.289C395.745 336.846 395.319 337.402 394.892 337.958L394.876 337.978C394.708 338.195 394.541 338.411 394.372 338.627C393.471 339.786 392.565 340.942 391.654 342.093C385.123 350.346 378.347 358.395 371.326 366.242C365.865 372.349 360.259 378.323 354.586 384.232C350.509 388.479 346.37 392.672 342.406 397.025C339.6 400.105 336.585 403.335 334.616 407.034C332.505 410.999 331.667 415.772 334.276 419.757C336.763 423.555 341.106 425.302 345.39 426.194C350.968 427.229 356.612 427.876 362.28 428.13C370.427 428.669 378.589 428.989 386.745 429.35C398.307 429.861 409.867 430.4 421.421 431.053C424.784 431.243 428.145 431.442 431.507 431.649C435.43 431.891 439.18 428.027 439.007 424.149C438.962 422.174 438.158 420.292 436.761 418.895C435.364 417.498 433.482 416.694 431.507 416.649V416.649Z" fill="#2F2E41"/>
<path d="M603.176 268.943C602.97 259.503 602.198 250.083 600.867 240.735C599.701 232.142 598.008 223.63 595.799 215.244C593.602 206.946 590.771 198.828 587.332 190.963C584.683 184.681 581.3 178.735 577.253 173.249C573.24 167.966 568.629 162.983 562.703 159.809C560.157 158.392 557.411 157.372 554.559 156.782C554.166 156.709 553.777 156.658 553.39 156.623C553.12 156.577 552.845 156.539 552.565 156.514C544.15 155.679 535.656 156.858 527.787 159.954C519.955 163.124 512.951 168.04 507.307 174.327C501.759 180.616 497.274 187.769 494.031 195.503C490.425 203.943 487.815 212.775 486.254 221.82C484.576 231.47 483.788 241.253 483.9 251.047C484.041 260.921 485.039 270.765 486.882 280.467C488.494 289.245 490.982 297.84 494.309 306.121C497.472 314.3 501.716 322.019 506.927 329.072C512.156 335.897 518.243 341.983 525.732 346.332C529.325 348.417 533.157 350.064 537.143 351.236C540.632 352.385 544.197 353.284 547.813 353.927C551.593 354.571 555.442 354.713 559.259 354.349C563.346 353.891 567.341 352.822 571.11 351.176C577.589 348.369 582.747 343.45 586.972 337.904C591.206 332.068 594.475 325.59 596.655 318.718C599.209 310.832 600.958 302.707 601.874 294.469C602.921 286.003 603.356 277.472 603.176 268.943V268.943ZM587.824 284.509C587.602 287.934 587.269 291.349 586.825 294.754C585.907 301.513 584.365 308.171 582.22 314.646C581.736 316.067 581.202 317.471 580.639 318.862C579.041 322.607 577.037 326.166 574.664 329.475L574.632 329.518C574.393 329.815 574.156 330.112 573.909 330.402C573.284 331.136 572.632 331.847 571.954 332.534C571.272 333.222 570.562 333.882 569.825 334.514C569.638 334.674 569.445 334.828 569.252 334.982C569.158 335.05 569.066 335.119 568.971 335.185C565.97 337.444 562.438 338.891 558.715 339.388C556.144 339.642 553.554 339.621 550.988 339.326C548.702 338.954 546.445 338.423 544.232 337.739C541.957 337.037 539.669 336.357 537.449 335.491C535.025 334.403 532.699 333.106 530.499 331.616C529.907 331.214 529.328 330.793 528.753 330.369C528.561 330.215 528.368 330.062 528.179 329.905C526.97 328.905 525.806 327.855 524.686 326.755C523.564 325.656 522.487 324.514 521.453 323.331C520.906 322.706 520.371 322.071 519.847 321.426C519.685 321.226 519.525 321.024 519.365 320.822C517.364 318.146 515.532 315.348 513.877 312.445C512.058 309.245 510.417 305.947 508.962 302.566C505.557 294.188 503.012 285.486 501.368 276.593C500.918 274.219 500.537 271.833 500.198 269.441C498.852 258.996 498.544 248.443 499.28 237.937C499.477 235.178 499.763 232.427 500.114 229.684C501.156 222.147 502.909 214.727 505.348 207.52C505.963 205.737 506.638 203.976 507.354 202.232C509.576 197.048 512.377 192.132 515.703 187.577C515.744 187.522 515.806 187.44 515.874 187.351L515.918 187.294C516.388 186.709 516.868 186.132 517.36 185.564C518.25 184.536 519.177 183.542 520.141 182.581C521.136 181.592 522.17 180.644 523.243 179.739C523.481 179.539 523.946 179.177 524.284 178.915C524.58 178.697 524.873 178.474 525.175 178.264C530.122 174.674 535.892 172.384 541.955 171.605C545.121 171.264 548.313 171.211 551.489 171.445C552.3 171.634 553.099 171.871 553.882 172.153C555.468 172.907 556.981 173.806 558.402 174.837C558.457 174.883 558.514 174.927 558.569 174.973C559.002 175.335 559.426 175.706 559.841 176.088C560.722 176.895 561.564 177.743 562.373 178.622C563.171 179.49 563.933 180.39 564.669 181.311C564.763 181.437 564.857 181.562 564.95 181.688C565.339 182.218 565.719 182.754 566.091 183.295C567.71 185.663 569.199 188.117 570.552 190.645C572.015 193.358 573.336 196.144 574.562 198.972C579.176 210.384 582.584 222.247 584.731 234.367C585.357 237.738 585.893 241.124 586.364 244.519C588.136 257.771 588.625 271.163 587.824 284.509V284.509Z" fill="#2F2E41"/>
<path d="M745.422 416.649C731.553 415.795 717.675 415.106 703.794 414.488C694.44 414.072 685.077 413.731 675.734 413.099C672.455 412.877 669.175 412.614 665.914 412.2C665.059 412.074 664.201 411.934 663.35 411.76C663.475 411.605 663.598 411.449 663.725 411.295C664.395 410.483 665.085 409.688 665.785 408.901C669.485 404.737 673.404 400.767 677.266 396.754C682.712 391.098 688.115 385.401 693.387 379.582C700.242 372.016 706.878 364.259 713.293 356.31C715.109 354.057 716.906 351.788 718.684 349.505C719.928 347.907 721.166 346.305 722.398 344.697C722.862 344.091 723.325 343.484 723.787 342.875C724.002 342.592 724.217 342.309 724.432 342.025C724.642 341.746 725.563 340.539 724.894 341.401C725.29 340.89 725.685 340.379 726.08 339.867C726.347 339.52 726.612 339.171 726.877 338.822C727.483 338.018 728.08 337.206 728.666 336.386C729.724 334.908 730.745 333.404 731.731 331.876C733.598 328.985 735.315 326.001 736.877 322.934C742.699 311.463 746.51 298.782 746.432 285.832C746.48 274.962 743.478 264.296 737.767 255.047C732.233 246.289 724.224 239.372 714.755 235.172C709.245 232.792 703.42 231.221 697.46 230.51C691.658 229.874 685.798 230.009 680.032 230.91C666.796 232.744 654.104 238.398 643.002 245.699C639.463 248.026 636.08 250.569 632.755 253.191C631.35 254.299 630.559 256.796 630.559 258.494C630.573 260.48 631.361 262.383 632.755 263.797C634.165 265.2 636.071 265.989 638.059 265.994C640.024 265.88 641.892 265.106 643.362 263.797C643.516 263.676 643.672 263.554 643.827 263.432C644.295 263.076 644.766 262.723 645.239 262.374C646.237 261.637 647.246 260.915 648.266 260.208C650.286 258.808 652.35 257.475 654.458 256.208C658.091 254.028 661.861 252.084 665.743 250.388C671.357 248.073 677.226 246.432 683.227 245.5C687.673 244.975 692.164 244.949 696.616 245.42C700.542 246.007 704.387 247.049 708.073 248.525C709.757 249.288 711.395 250.15 712.977 251.107C713.949 251.698 714.899 252.325 715.825 252.988C715.954 253.081 716.243 253.297 716.49 253.482C716.725 253.673 716.958 253.866 717.188 254.061C718.876 255.491 720.456 257.045 721.914 258.708C722.257 259.1 722.593 259.498 722.922 259.901C722.972 259.962 723.02 260.024 723.069 260.085C723.705 260.945 724.311 261.826 724.886 262.728C726.056 264.582 727.095 266.515 727.995 268.515C729.46 272.193 730.496 276.028 731.081 279.943C731.551 284.382 731.526 288.858 731.005 293.291C730.085 299.224 728.463 305.027 726.172 310.577C723.504 316.614 720.248 322.374 716.451 327.773C715.92 328.533 715.381 329.286 714.832 330.033C714.575 330.382 714.317 330.73 714.056 331.077C713.955 331.212 713.617 331.654 713.434 331.895C713.028 332.413 712.629 332.93 712.234 333.454C712.018 333.74 711.802 334.026 711.587 334.312C711.088 334.972 710.588 335.631 710.086 336.289C709.661 336.846 709.235 337.402 708.807 337.958L708.792 337.978C708.624 338.195 708.456 338.411 708.288 338.628C707.387 339.787 706.481 340.942 705.569 342.093C699.039 350.346 692.263 358.395 685.241 366.242C679.781 372.349 674.175 378.323 668.502 384.232C664.425 388.479 660.286 392.672 656.321 397.025C653.516 400.105 650.501 403.335 648.532 407.034C646.421 410.999 645.583 415.772 648.192 419.757C650.679 423.556 655.022 425.302 659.305 426.194C664.884 427.229 670.527 427.876 676.195 428.13C684.343 428.669 692.505 428.989 700.661 429.35C712.223 429.861 723.783 430.4 735.337 431.053C738.699 431.243 742.061 431.442 745.422 431.649C749.346 431.891 753.096 428.027 752.922 424.149C752.878 422.174 752.074 420.292 750.677 418.895C749.28 417.498 747.398 416.694 745.422 416.649Z" fill="#2F2E41"/>
<path d="M901.557 315.87C887.688 315.016 873.81 314.327 859.928 313.709C850.574 313.293 841.211 312.952 831.868 312.32C828.589 312.098 825.309 311.835 822.048 311.421C821.193 311.295 820.335 311.155 819.484 310.981C819.609 310.826 819.732 310.67 819.859 310.516C820.53 309.704 821.22 308.909 821.919 308.122C825.62 303.958 829.538 299.988 833.401 295.975C838.847 290.319 844.25 284.622 849.522 278.803C856.377 271.237 863.012 263.48 869.428 255.531C871.243 253.278 873.04 251.009 874.819 248.726C876.063 247.128 877.301 245.526 878.532 243.918C878.997 243.312 879.46 242.705 879.922 242.096C880.137 241.813 880.352 241.53 880.566 241.246C880.777 240.967 881.698 239.76 881.029 240.622C881.424 240.111 881.819 239.6 882.214 239.088C882.481 238.741 882.747 238.392 883.011 238.043C883.618 237.239 884.214 236.427 884.801 235.607C885.858 234.129 886.88 232.625 887.865 231.097C889.732 228.206 891.45 225.222 893.011 222.155C898.833 210.684 902.645 198.003 902.566 185.053C902.615 174.183 899.613 163.517 893.902 154.268C888.368 145.51 880.359 138.593 870.89 134.393C865.38 132.013 859.554 130.442 853.594 129.731C847.793 129.095 841.933 129.23 836.167 130.131C822.931 131.965 810.238 137.619 799.136 144.92C795.597 147.247 792.215 149.79 788.89 152.412C787.485 153.52 786.693 156.017 786.693 157.715C786.708 159.701 787.496 161.604 788.89 163.018C790.299 164.421 792.205 165.21 794.193 165.215C796.158 165.101 798.027 164.327 799.497 163.018C799.651 162.897 799.806 162.775 799.961 162.653C800.429 162.297 800.9 161.944 801.373 161.595C802.371 160.858 803.38 160.136 804.4 159.429C806.421 158.029 808.485 156.696 810.593 155.429C814.226 153.249 817.995 151.305 821.878 149.609C827.492 147.294 833.361 145.653 839.361 144.721C843.807 144.196 848.298 144.17 852.75 144.641C856.677 145.228 860.522 146.27 864.207 147.746C865.892 148.509 867.529 149.371 869.111 150.328C870.084 150.919 871.033 151.546 871.959 152.209C872.089 152.302 872.377 152.518 872.625 152.703C872.859 152.894 873.092 153.087 873.323 153.282C875.011 154.712 876.59 156.266 878.048 157.929C878.391 158.321 878.728 158.719 879.057 159.122C879.107 159.183 879.155 159.244 879.204 159.306C879.84 160.166 880.445 161.047 881.02 161.949C882.191 163.803 883.23 165.736 884.13 167.736C885.595 171.414 886.63 175.249 887.215 179.164C887.685 183.602 887.66 188.079 887.139 192.512C886.219 198.445 884.597 204.248 882.306 209.798C879.638 215.835 876.382 221.595 872.586 226.994C872.055 227.754 871.515 228.507 870.966 229.254C870.71 229.603 870.451 229.951 870.19 230.298C870.089 230.432 869.752 230.874 869.568 231.116C869.162 231.634 868.764 232.151 868.368 232.675C868.152 232.961 867.937 233.247 867.721 233.533C867.223 234.193 866.722 234.852 866.22 235.51C865.795 236.067 865.369 236.623 864.942 237.179L864.926 237.199C864.758 237.416 864.591 237.632 864.422 237.848C863.521 239.007 862.615 240.163 861.704 241.314C855.174 249.567 848.397 257.616 841.376 265.463C835.915 271.57 830.309 277.544 824.636 283.453C820.56 287.7 816.42 291.893 812.456 296.246C809.65 299.326 806.635 302.556 804.666 306.255C802.555 310.22 801.717 314.993 804.326 318.978C806.813 322.776 811.156 324.523 815.44 325.415C821.018 326.45 826.662 327.097 832.33 327.351C840.477 327.89 848.639 328.21 856.795 328.57C868.357 329.082 879.917 329.621 891.471 330.274C894.834 330.464 898.195 330.663 901.557 330.87C905.48 331.112 909.23 327.248 909.057 323.37C909.012 321.395 908.208 319.513 906.811 318.116C905.414 316.719 903.532 315.915 901.557 315.87V315.87Z" fill="#2F2E41"/>
</g>
<defs>
<clipPath id="clip0_1_2">
<rect width="977.453" height="657.627" fill="white"/>
</clipPath>
</defs>
</svg>
